<?xml version="1.0" encoding="utf-8"?>
<!-- Generator: Adobe Illustrator 24.2.1, SVG Export Plug-In . SVG Version: 6.00 Build 0)  -->
<svg version="1.1" id="Layer_1" xmlns="http://www.w3.org/2000/svg" xmlns:xlink="http://www.w3.org/1999/xlink" x="0px" y="0px"
	 viewBox="0 0 20 20" style="enable-background:new 0 0 20 20;" xml:space="preserve">
<style type="text/css">
	.st0{fill:#FFFFFF;}
</style>
<path class="st0" d="M13.2,5.07c-0.69,0-1.37,0.14-2,0.42l-0.64,0.28l2.25,2.54l0.15,0.17h1.75V10c0,0.24-0.05,0.46-0.16,0.67
	c-0.26,0.52-0.78,0.84-1.36,0.84c-0.28,0-0.55-0.07-0.77-0.21c-0.26-0.16-0.45-0.35-0.55-0.55c-0.07-0.14-0.14-0.29-0.16-0.42
	c0-0.03,0-0.12,0-0.19c0-0.2,0-0.45-0.02-0.64c-0.01-0.08-0.02-0.17-0.03-0.25c-0.02-0.1-0.04-0.2-0.06-0.31
	c-0.08-0.37-0.2-0.71-0.35-1.03c-0.1-0.2-0.19-0.38-0.29-0.54c-0.17-0.27-0.36-0.52-0.58-0.74l0,0c-0.01-0.01-0.02-0.03-0.03-0.04
	c-0.03-0.03-0.05-0.06-0.06-0.07L10.3,6.52c0,0,0,0-0.01-0.01l-0.16-0.16v0C9.8,6.05,9.41,5.79,9,5.58C8.31,5.24,7.57,5.07,6.8,5.07
	H1.86V10c0,2.72,2.21,4.93,4.93,4.93c1.16,0,2.28-0.43,3.18-1.23c0.9,0.79,2.03,1.23,3.22,1.23c0.93,0,1.85-0.26,2.63-0.76
	c0.77-0.48,1.38-1.17,1.78-1.97c0.34-0.69,0.52-1.43,0.52-2.2V5.07H13.2z M8.31,9.96L8.31,9.96l0,0.02c0,0,0,0.01,0,0.01l0,0.02
	l0,0.02c0,0,0,0.01,0,0.01l0,0.01v0.01c0,0.17,0.01,0.33,0.03,0.5c-0.18,0.24-0.49,0.54-0.66,0.66c-0.26,0.19-0.56,0.29-0.88,0.29
	c-0.83,0-1.51-0.68-1.51-1.51V8.49H6.8c0.24,0,0.46,0.05,0.67,0.16c0.37,0.18,0.64,0.5,0.76,0.88c0.03,0.1,0.07,0.24,0.08,0.36h0
	c0,0.02,0,0.03,0,0.04V9.96L8.31,9.96L8.31,9.96z M17.11,10c0,0.61-0.14,1.2-0.41,1.74c-0.32,0.64-0.81,1.18-1.41,1.56
	c-0.62,0.39-1.35,0.6-2.09,0.6c-1.07,0-2.07-0.44-2.83-1.25c-0.65-0.71-1.02-1.63-1.03-2.59c0-0.01,0-0.03,0-0.04l0-0.01l0-0.01
	c0-0.01,0-0.03,0-0.04C9.35,9.67,9.27,9.4,9.21,9.21C9,8.56,8.54,8.03,7.93,7.73C7.58,7.55,7.2,7.46,6.8,7.46H4.26V10
	c0,1.4,1.14,2.54,2.54,2.54c0.54,0,1.05-0.17,1.48-0.48c0.06-0.05,0.14-0.11,0.22-0.18c0.2,0.48,0.46,0.89,0.67,1.17
	c-0.69,0.56-1.52,0.86-2.37,0.86c-2.16,0-3.91-1.75-3.91-3.91V6.09H6.8c0.61,0,1.2,0.14,1.74,0.41c0.38,0.19,0.72,0.43,1.01,0.73
	c0.01,0.01,0.02,0.02,0.03,0.03C9.6,7.29,9.63,7.31,9.65,7.34l0,0c0.17,0.18,0.32,0.38,0.46,0.59c0.08,0.12,0.16,0.27,0.24,0.43
	c0.12,0.25,0.21,0.52,0.28,0.81c0.02,0.08,0.03,0.16,0.05,0.24c0.01,0.07,0.02,0.13,0.03,0.2c0.01,0.13,0.01,0.36,0.01,0.53
	c0,0.16,0,0.24,0.01,0.3c0.03,0.29,0.15,0.55,0.27,0.79c0.19,0.36,0.5,0.68,0.92,0.95c0.38,0.24,0.84,0.37,1.31,0.37
	c0.97,0,1.84-0.54,2.27-1.41c0.18-0.35,0.26-0.73,0.26-1.13V7.46h-2.31l-1.12-1.27c0.29-0.07,0.59-0.1,0.9-0.1h3.91V10z"/>
</svg>
